ffmpeg version 3.4.8-0ubuntu0.2 Copyright (c) 2000-2020 the FFmpeg developers
  built with gcc 7 (Ubuntu 7.5.0-3ubuntu1~18.04)
  configuration: --prefix=/usr --extra-version=0ubuntu0.2 --toolchain=hardened --libdir=/usr/lib/x86_64-linux-gnu --incdir=/usr/include/x86_64-linux-gnu --enable-gpl --disable-stripping --enable-avresample --enable-avisynth --enable-gnutls --enable-ladspa --enable-libass --enable-libbluray --enable-libbs2b --enable-libcaca --enable-libcdio --enable-libflite --enable-libfontconfig --enable-libfreetype --enable-libfribidi --enable-libgme --enable-libgsm --enable-libmp3lame --enable-libmysofa --enable-libopenjpeg --enable-libopenmpt --enable-libopus --enable-libpulse --enable-librubberband --enable-librsvg --enable-libshine --enable-libsnappy --enable-libsoxr --enable-libspeex --enable-libssh --enable-libtheora --enable-libtwolame --enable-libvorbis --enable-libvpx --enable-libwavpack --enable-libwebp --enable-libx265 --enable-libxml2 --enable-libxvid --enable-libzmq --enable-libzvbi --enable-omx --enable-openal --enable-opengl --enable-sdl2 --enable-libdc1394 --enable-libdrm --enable-libiec61883 --enable-chromaprint --enable-frei0r --enable-libopencv --enable-libx264 --enable-shared
  libavutil      55. 78.100 / 55. 78.100
  libavcodec     57.107.100 / 57.107.100
  libavformat    57. 83.100 / 57. 83.100
  libavdevice    57. 10.100 / 57. 10.100
  libavfilter     6.107.100 /  6.107.100
  libavresample   3.  7.  0 /  3.  7.  0
  libswscale      4.  8.100 /  4.  8.100
  libswresample   2.  9.100 /  2.  9.100
  libpostproc    54.  7.100 / 54.  7.100
[rawvideo @ 0x55681b1b1a20] Estimating duration from bitrate, this may be inaccurate
Input #0, rawvideo, from '../../SVC-Encoder-20220109T061506Z-001/SVC-Encoder/Dataset/RollerCoaster/6f_2x2/tile_yuv/f1_t2_480x480.yuv':
  Duration: 00:00:10.00, start: 0.000000, bitrate: 82944 kb/s
    Stream #0:0: Video: rawvideo (I420 / 0x30323449), yuv420p, 480x480, 82944 kb/s, 30 tbr, 30 tbn, 30 tbc
Stream mapping:
  Stream #0:0 -> #0:0 (rawvideo (native) -> h264 (libx264))
Press [q] to stop, [?] for help
[libx264 @ 0x55681b1bec60] using cpu capabilities: MMX2 SSE2Fast LZCNT SSSE3 SSE4.2 AVX
[libx264 @ 0x55681b1bec60] profile High, level 3.0
Output #0, rawvideo, to 'RollerCoaster_f1_t2_480x480_x264_QP_20.h264':
  Metadata:
    encoder         : Lavf57.83.100
    Stream #0:0: Video: h264 (libx264), yuv420p, 480x480, q=-1--1, 30 fps, 30 tbn, 30 tbc
    Metadata:
      encoder         : Lavc57.107.100 libx264
    Side data:
      cpb: bitrate max/min/avg: 0/0/0 buffer size: 0 vbv_delay: -1
frame=   80 fps=0.0 q=26.0 PSNR=Y:nan U:nan V:nan *:nan size=     256kB time=00:00:01.23 bitrate=1700.4kbits/s speed=2.37x    frame=  122 fps=119 q=26.0 PSNR=Y:nan U:nan V:nan *:nan size=     512kB time=00:00:02.63 bitrate=1592.8kbits/s speed=2.57x    frame=  162 fps=106 q=26.0 PSNR=Y:nan U:nan V:nan *:nan size=     768kB time=00:00:03.96 bitrate=1586.1kbits/s speed=2.59x    frame=  202 fps= 99 q=26.0 PSNR=Y:nan U:nan V:nan *:nan size=    1024kB time=00:00:05.30 bitrate=1582.8kbits/s speed=2.61x    frame=  242 fps= 95 q=26.0 PSNR=Y:nan U:nan V:nan *:nan size=    1280kB time=00:00:06.63 bitrate=1580.8kbits/s speed=2.62x    frame=  286 fps= 94 q=26.0 PSNR=Y:nan U:nan V:nan *:nan size=    1536kB time=00:00:08.10 bitrate=1553.4kbits/s speed=2.67x    frame=  300 fps= 81 q=26.0 LPSNR=Y:inf U:inf V:inf *:inf size=    2076kB time=00:00:09.93 bitrate=1712.0kbits/s speed= 2.7x    
video:2076kB audio:0kB subtitle:0kB other streams:0kB global headers:0kB muxing overhead: 0.000000%
[libx264 @ 0x55681b1bec60] frame I:2     Avg QP:18.30  size: 52717  PSNR Mean Y:45.58 U:48.87 V:49.76 Avg:46.50 Global:46.44
[libx264 @ 0x55681b1bec60] frame P:76    Avg QP:20.15  size: 17439  PSNR Mean Y:43.36 U:48.11 V:48.95 Avg:44.50 Global:44.42
[libx264 @ 0x55681b1bec60] frame B:222   Avg QP:25.46  size:  3130  PSNR Mean Y:41.33 U:47.62 V:48.43 Avg:42.65 Global:42.62
[libx264 @ 0x55681b1bec60] consecutive B-frames:  1.3%  0.0%  0.0% 98.7%
[libx264 @ 0x55681b1bec60] mb I  I16..4:  3.1% 64.5% 32.4%
[libx264 @ 0x55681b1bec60] mb P  I16..4:  0.3%  3.0%  1.0%  P16..4: 28.4% 35.7% 26.2%  0.0%  0.0%    skip: 5.4%
[libx264 @ 0x55681b1bec60] mb B  I16..4:  0.0%  0.3%  0.2%  B16..8: 36.5% 20.6%  5.3%  direct: 3.6%  skip:33.5%  L0:36.1% L1:40.7% BI:23.2%
[libx264 @ 0x55681b1bec60] 8x8 transform intra:67.2% inter:58.7%
[libx264 @ 0x55681b1bec60] coded y,uvDC,uvAC intra: 89.8% 93.1% 63.8% inter: 29.7% 17.7% 0.9%
[libx264 @ 0x55681b1bec60] i16 v,h,dc,p: 33% 24% 23% 21%
[libx264 @ 0x55681b1bec60] i8 v,h,dc,ddl,ddr,vr,hd,vl,hu: 14% 11% 12% 13%  7% 12%  6% 11% 14%
[libx264 @ 0x55681b1bec60] i4 v,h,dc,ddl,ddr,vr,hd,vl,hu: 20% 16% 12%  9%  7% 10%  6% 10%  9%
[libx264 @ 0x55681b1bec60] i8c dc,h,v,p: 42% 12% 24% 21%
[libx264 @ 0x55681b1bec60] Weighted P-Frames: Y:0.0% UV:0.0%
[libx264 @ 0x55681b1bec60] ref P L0: 54.1% 19.4% 20.8%  5.7%
[libx264 @ 0x55681b1bec60] ref B L0: 86.6% 11.6%  1.8%
[libx264 @ 0x55681b1bec60] ref B L1: 91.0%  9.0%
[libx264 @ 0x55681b1bec60] PSNR Mean Y:41.873 U:47.754 V:48.573 Avg:43.141 Global:43.030 kb/s:1700.59
